<svg xmlns="http://www.w3.org/2000/svg" width="24" height="24" fill="none">
  <path d="M15.889 3.443a8.8 8.8 0 1 1-14.663 8.723c-.037-.124-.228-.105-.226.024a10.964 10.964 0 0 0 3.22 7.588c4.297 4.296 11.262 4.296 15.558 0 4.296-4.296 4.296-11.261 0-15.558A10.964 10.964 0 0 0 12.19 1c-.13-.002-.148.19-.024.226a8.762 8.762 0 0 1 3.723 2.217Zm-7.19 11.856a6.6 6.6 0 0 0 4.776-11.156 2.735 2.735 0 1 1-.219-.219 6.6 6.6 0 0 0-9.341 9.322 2.735 2.735 0 1 1 .238.238 6.578 6.578 0 0 0 4.546 1.815Z" clip-rule="evenodd"/>
  <style>
        path { fill: #000; }
        @media (prefers-color-scheme: dark) {
            path { fill: #FFF; }
        }
    </style>
</svg>